<svg width="43" height="43" viewBox="0 0 43 43" fill="none" xmlns="http://www.w3.org/2000/svg">
<rect y="21.5" width="30.4056" height="30.4056" rx="15.2028" transform="rotate(-45 0 21.5)" fill="#BABB73"/>
<rect y="42.2951" width="42.2951" height="43" rx="20" transform="rotate(-90 0 42.2951)" fill="#BABB73"/>
<path d="M11.2783 30.5106V24.8822C14.6152 28.6626 16.8416 30.052 21.4996 31.1136C26.1472 29.9977 28.4207 28.7052 31.7209 24.8822V30.5106C23.6112 37.2612 19.1411 36.9457 11.2783 30.5106Z" fill="#5D4152"/>
<rect x="32.9512" y="4.93445" width="5.23889" height="31.8075" rx="2.61944" transform="rotate(45 32.9512 4.93445)" fill="#5D4152"/>
<path d="M6.34473 7.61162C6.34473 6.24902 7.44934 5.14441 8.81194 5.14441V5.14441C10.1745 5.14441 11.2792 6.24902 11.2792 7.61162V21.1917V34.3985C11.2792 35.7611 10.1745 36.8657 8.81194 36.8657V36.8657C7.44934 36.8657 6.34473 35.7611 6.34473 34.3985V7.61162Z" fill="#5D4152"/>
<rect x="31.7217" y="5.14441" width="4.93443" height="31.0164" rx="2.46721" fill="#5D4152"/>
<rect x="6.34473" y="8.63892" width="5.23889" height="31.8075" rx="2.61944" transform="rotate(-45 6.34473 8.63892)" fill="#5D4152"/>
</svg>
